<svg xmlns="http://www.w3.org/2000/svg" width="386" height="247" fill="none" viewBox="0 0 386 247">
    <path fill="#39281E" d="M23 243H370V245H23z"/>
    <path fill="#FB9E97" d="M330.979 225.788c.07 7.671-5.164 12.166-12.523 13.533-3.702.692-11.052.192-10.417 5.679H343v-26c-2.529 1.067-4.459 3.511-6.821 4.953-1.833 1.118-3.05 1.835-5.2 1.835zM356.503 186.391c7.755-1.162 12.996 3.712 15.366 11.269 1.195 3.801 1.676 11.626 7.131 10.159L374.312 171 348 174.694c1.426 2.513 4.154 4.203 5.927 6.483 1.4 1.807 2.282 2.952 2.576 5.214z"/>
    <path fill="#EDE4DF" d="M342.392 237.134c-3.966 2.226-10.197 1.93-13.043-1.533-.161-.194-.308-.394-.441-.601-2.177 2.742-5.905 4.473-10.452 5.187-3.702.587-11.052.163-10.417 4.813H343v-8.226l-.608.36zM376.949 171L359 173.336c3.123 1.647 5.624 4.148 7.162 7.162 1.154 2.387 1.523 5.037 1.061 7.618 3.267 1.978 5.648 5.371 7.065 9.534 1.292 3.804 1.813 11.637 7.712 10.169L376.949 171z"/>
    <path fill="#627699" d="M310 122l10.71 105s27.018-1.564 26.275-1.831c-.743-.267-3.57-103.169-3.57-103.169H310z"/>
    <path fill="#39281E" d="M327.976 182.066c0 2.182.448 5.851-2.561 6.729-5.628 1.672-7.653-7.38-11.305-8.935-.74-2.8-.204-6.302-1.11-8.86 1.519 4.096 10.156 9.604 14.976 11.066z"/>
    <path fill="#808FAE" d="M307.001 117.311c-10.17 14.118 1.225 43.74 10.035 54.468C329.003 186.347 344.647 189 361.999 189c.062-6.942-2.013-13.723-1.87-20.683-8.372.656-19.677-7.509-23.255-15.368-3.577-7.86 2.022-15.747 2.54-23.507.895-13.867-18.845-23.453-29.032-15.638-1.295.993-2.435 2.175-3.381 3.507z"/>
    <path fill="#FCCE78" d="M324.309 25.428c-6.926 2.685-3.436 10.66-2.577 15.887.895 5.505.394 8.852-4.797 10.938-6.264 2.523-13.244 3.428-19.688 5.46-9.745 3.06-18.793 8.77-27.518 14.32-5.512 3.517-10.873 7.429-16.878 10.096-2.881 1.271-6.712 4-9.844 3.938-.223 4.672 4.743 9.183 7.553 12.128 3.124-.224 6.157 1.28 9.093 2.13 5.87 1.692 12.457 1.593 18.497 1.567 9.209-.045 17.37-2.453 24.028-9.228.233 11.868-1.163 23.477-1.789 35.336h47.832V92.001c17.048 0 28.046-17.06 32.968-32.687 3.312-10.498 2.766-22.698 2.793-33.626-3.786-1.28-8.01-2.57-11.84-3.688-.37 2.289-.909 4.548-1.611 6.758-1.092 3.58-2.488 9.845-4.922 12.718-2.613 3.061-7.929 2.112-11.32 2.685-5.683.931-11.052 5.64-13.621 11.063.179-2.184-1.315-4.01-2.801-5.263-3.15-2.685-5.172-4.761-5.002-9.398.116-3.133 2.156-6.158 1.53-9.407-.433-2.185-1.795-4.073-3.732-5.173-1.936-1.1-4.256-1.303-6.354-.555z"/>
    <path fill="#FB9E97" d="M248.995 93.703c-1.682.199-2.736.987-3.878 1.974-1.682 1.42-3.488 2.982-5.719 3.806-1.107.405-2.656.767-3.78.291-1.401-.6-2.015-1.949-1.426-3.131.948-1.712 2.771-1.513 4.223-2.55 1.904-1.37-2.346-1.42-3.09-1.547-.743-.128-2.726-.405-3.169-1.009-.637-.88.841-.802 1.505-.71 2.477.374 5.008.465 7.516.27 1.188-.15 2.355-.388 3.489-.71.696-.279 1.47-.41 2.248-.383 1.328.17 2.16 1.583 2.081 3.699z"/>
    <path fill="#FB9E97" d="M234.779 95.065c-.584-.387-3.243 1.055-4.338 1.652-1.094.598-2.124.984-3.202 1.45-.551.246-2.181.879-2.238 1.547-.105 1.204 6.048-1.758 6.908-2.092.421-.202 4.005-1.837 2.87-2.557z"/>
    <path fill="#FB9E97" d="M234.779 96.065c-.584-.387-3.243 1.055-4.346 1.652-1.102.598-2.116.993-3.194 1.45-.559.246-2.181.879-2.238 1.547-.105 1.204 6.048-1.758 6.908-2.092.421-.167 4.005-1.801 2.87-2.557zM236.776 98.04c-.572-.295-2.911 1.126-3.926 1.716-1.015.589-1.902.998-2.865 1.512-.504.249-1.97.945-1.985 1.511 0 1.044 5.497-1.935 6.272-2.267.376-.257 3.594-1.913 2.504-2.472zM239.749 98.038c-.608-.362-2.927 1.943-3.939 2.898-1.012.954-1.899 1.635-2.864 2.425-.506.406-1.969 1.558-1.946 2.349.039 1.514 5.542-3.359 6.32-3.951.382-.286 3.588-3.007 2.429-3.72zM380.716 23.533c-.131-1.617.208-3.238.962-4.59.984-2.19 2.012-4.538 2.263-7.062.126-1.254.104-2.905-.621-3.893-.847-1.181-2.335-1.323-3.329-.318-1.405 1.562-.739 3.32-1.427 5.129-.851 2.392-1.909-1.845-2.22-2.534-.31-.688-1.035-2.595-1.716-2.816-.991-.326-.569 1.121-.34 1.766.949 2.358 1.635 4.853 2.042 7.424.139 1.243.186 2.498.14 3.751-.084.808-.008 1.627.222 2.392.481 1.245 2.034 1.607 4.024.75z"/>
    <path fill="#FB9E97" d="M377.231 11.875c-.532-.435 0-3.13.165-4.281.166-1.152.253-2.137.34-3.209.053-.558.166-2.173.715-2.369 1.064-.376.262 5.839.218 6.686-.017.42-.41 4.006-1.438 3.173z"/>
    <path fill="#FB9E97" d="M378.234 11.875c-.54-.434 0-3.127.166-4.278.165-1.15.244-2.135.339-3.206.044-.558.157-2.172.706-2.375 1.071-.376.27 5.834.226 6.688-.052.428-.409 4.003-1.437 3.17zM380.259 11.854c-.764-.474.362-3.147.804-4.3.442-1.154.656-2.126.938-3.199.134-.562.522-2.19 1.34-2.344 1.674-.307-.349 5.893-.523 6.74-.04.416-1.085 4.009-2.559 3.103zM382.151 13.834c-.557-.51.569-3.167 1.053-4.314.484-1.147.715-2.13 1.052-3.204.158-.555.61-2.183 1.305-2.309 1.346-.251-.811 5.92-1.053 6.793-.136.422-1.294 4.004-2.357 3.034z"/>
    <path fill="#39281E" d="M320.786 14.305c-6.096 1.993-10.364 7.506-10.771 13.914-.341 6.975 5.215 10.598 9.352 14.831 1.975 2.014 4.632 4.072 5.628 6.948 1.248 3.596.431 7.128-.233 10.706-2.19 11.82 3.85 19.522 14.746 21.688 8.859 1.798 19.746-.206 25.203-8.538 4.147-6.355 5.825-16.54 2.594-23.56-3.518-7.612-9.46-11.405-17.313-11.909-6.472-.413-9.478-2.382-10.205-9.357-.898-8.988-10.493-16.673-19.046-14.723"/>
    <path fill="#F76540" d="M241.351 227.267c.066 7.086-4.573 11.227-11.096 12.497-3.267.635-9.781.175-9.221 5.236H252v-24c-2.24.994-3.957 3.248-6.038 4.601-1.652 1.003-2.744 1.666-4.611 1.666zM272.262 205.316c4.675 4.983 3.808 10.907-.324 16.012-2.095 2.566-7.37 6.445-3.637 9.672L292 210.995 276.366 194c-1.076 2.148-.953 4.853-1.638 7.141-.609 1.783-1.009 2.94-2.466 4.175z"/>
    <path fill="#A8501D" d="M250.796 236.052c-2.622 1.958-6.402 2.546-9.482.935-.563-.298-1.074-.651-1.521-1.052-1.867 2.597-5.311 4.216-9.538 4.878-3.267.508-9.781.14-9.221 4.187H252v-10c-.364.377-.766.728-1.204 1.052zM284.192 203c.018.565-.008 1.13-.076 1.692-.324 2.739-2.028 5.372-5.141 6.147-1.237.301-2.55.263-3.761-.107.761 3.383-.543 6.907-3.276 10.092-2.095 2.434-7.37 6.115-3.637 9.176L292 211.021 284.192 203z"/>
    <path fill="#B0C3D6" d="M241 125v106.582s10.796 3.891 15.034-1.219c0 0 7.717-46.473 5.757-55.725 0 0 8.608-33.815 5.553-49.638H241z"/>
    <path fill="#FB9E97" d="M252 44c4.971 0 9-5.373 9-12s-4.029-12-9-12-9 5.373-9 12 4.029 12 9 12z"/>
    <path fill="#39281E" d="M238.013 180c-.16 3.172 1.19 7.866 2.541 11.361 1.998 5.069 4.85 4.816 9.229 6.118 3.598 1.049 6.058 5.716 7.506 8.521.311-2.054.222-4.265.711-6.266-7.438-5.771-14.148-12.396-19.987-19.734z"/>
    <path fill="#D3DBE5" d="M229.151 119c0 11.397-.45 22.9.204 34.2.357 6.165 1.225 13.353 3.648 18.954 2.194 5.065 6.666 9.574 10.365 13.414 4.608 4.774 9.701 9.09 14.454 13.74 4.098 3.999 9.625 7.998 12.975 12.692.136-.696.451-.643.85-1.198 2.551-3.725 6.505-6.958 9.353-10.516l-29.598-40.427s9.702-22.019 8.163-32.994L229.151 119z"/>
    <path fill="#FB9E97" d="M244.171 50.076c-.043.089-.26 0-.13.125 2.969.304 4.554-4.91 4.753-7.226.216-2.503.614-7.028 3.722-6.974 3.463.053 1.732 4.846 3.541 9.836 1.03 2.897 2.112 5.097 4.943 5.705-.545.17-1.143.67-1.731.894-1.524.662-3.342.51-4.944.501-1.631.124-3.271.064-4.891-.179-1.877-.609-3.653-1.514-5.263-2.682z"/>
    <path fill="#39281E" d="M243.212 27.263c-3.713-.364-7.389-2.988-10.732-4.495-5.29-2.4-10.418-5.925-11.941-11.901-.901-3.664-1.108-8.428 2.92-10.29 3.875-1.801 7.705.866 9.12 4.513 1.414 3.646 1.18 8.757 4.163 11.606 2.127 2.035 5.163 1.43 7.705.693 3.685-1.065 8.795-2.711 12.228-.087 1.599 1.218 2.464 3.12 2.307 5.076 0 5.387-7.462 6.764-11.336 7.622"/>
    <path fill="#39281E" d="M257.635 23.094c.934-1.742 3.88-1.146 5.11 0 .944.914 1.535 2.23 1.643 3.656.108 1.426-.276 2.843-1.068 3.936-1.126 1.62-2.603 3-1.852 5.421.463 1.49 2.011 1.864 2.786 3.028.952 1.408.997 3.378.112 4.844-1.118 1.965-3.042 2.273-4.87 1.863-.929-.16-1.778-.702-2.396-1.528-1.724-2.46-1.149-5.459-.127-8.113"/>
    <path fill="#3555DC" d="M262.336 51.048c-1.943-.535-3.941-.834-5.954-.89-10.05-.23-20.1-.666-29.815 2.58-12.833 4.276-26.74 10.759-40.463 9.132-4.809-.525-8.878-3.886-13.282-5.407-1.612 4.393-3.858 8.003-5.822 12.307 3.787 1.263 5.487 5.451 8.315 8.217 15.131 14.814 32.342 10.377 49.209.47-1.251 2.669-1.445 7.32-1.85 11.267-1.215 11.827-1.277 23.921-1.233 35.801 8.561-1.699 17.237-.32 25.851 1.778 0 0 17.801 6.545 22.434-2.125 2.853-5.335 3.752-17.785 3.769-25.388.238 2.108 1.057 3.477 1.815 5.496 3.673 9.666 5.531 19.954 8.121 29.985 3.082 0 6.165.729 9.248.729 0-6.296.616-13.036.141-19.305-1.524-20.043-7.002-41.74-18.981-57.089-2.916-3.718-6.955-6.372-11.503-7.558z"/>
    <path fill="#FB9E97" d="M171.912 64c-.874-1.271-2.185-2.176-3.684-2.543-2.314-.67-4.474-1.789-6.358-3.291-1.048-.81-1.723-2.012-1.87-3.329-.015-1.533 1.156-2.818 2.684-2.945 2.188 0 2.739 1.777 4.432 2.562 2.225 1.047.504-2.889.327-3.637-.178-.748-.711-2.73-.262-3.44.655-1.048 1.187.355 1.393 1 .627 2.464 1.57 4.837 2.805 7.059.65 1 1.388 1.938 2.207 2.805.591.507 1.053 1.148 1.346 1.87.365 1.365-.757 2.898-3.02 3.889z"/>
    <path fill="#FB9E97" d="M168.999 55.613c.061-.73-2.206-2.702-3.163-3.539-.958-.837-1.688-1.657-2.522-2.512-.431-.441-1.661-1.747-2.179-1.54-1.011.387 3.98 5.15 4.613 5.844.316.342 3.137 3.142 3.251 1.747zM166.999 56.613c.061-.728-2.214-2.699-3.163-3.535-.949-.837-1.696-1.656-2.522-2.51-.431-.441-1.661-1.746-2.179-1.548-1.011.396 3.971 5.155 4.604 5.848.316.342 3.146 3.14 3.26 1.745zM165 57.556c0-.797-2.247-2.703-3.201-3.548-.953-.846-1.658-1.643-2.537-2.488-.431-.448-1.658-1.74-2.147-1.488-.929.506 4.071 5.21 4.709 5.91.357.34 3.159 3.12 3.176 1.614zM164.999 60.487c0-.864-2.28-2.728-3.23-3.56-.95-.833-1.702-1.623-2.541-2.466-.436-.432-1.695-1.728-2.13-1.412-.855.622 4.148 5.268 4.798 5.974.316.337 3.166 3.097 3.103 1.464zM290.419 132.266c-.05 1.342.335 2.66 1.087 3.729 1.11 1.725 1.917 3.656 2.38 5.696.169 1.024.228 2.38-.389 3.253-.726 1.012-2.063 1.222-3.026.476-1.352-1.198-.86-2.69-1.535-4.149-.882-1.92-1.66 1.642-1.903 2.237-.242.595-.822 2.205-1.432 2.435-.896.334-.573-.888-.397-1.436.762-2.008 1.278-4.114 1.535-6.267.067-1.033.052-2.071-.044-3.102-.125-.658-.11-1.339.044-1.991.426-1.063 1.822-1.46 3.68-.881z"/>
    <path fill="#FB9E97" d="M290.139 142.142c-.395.466.157 3.156.373 4.284.216 1.128.313 2.122.44 3.195.075.552.254 2.17.694 2.367.866.323-.119-5.862-.194-6.706-.03-.465-.545-4.031-1.313-3.14z"/>
    <path fill="#FB9E97" d="M291.14 142.142c-.396.466.15 3.158.366 4.28.217 1.121.314 2.123.449 3.197.067.553.246 2.171.694 2.369.859.323-.119-5.866-.201-6.711-.03-.45-.546-4.027-1.308-3.135z"/>
    <path fill="#FB9E97" d="M292.159 142.163c-.576.505.564 3.207 1.022 4.314.458 1.106.717 2.124 1.034 3.206.164.554.611 2.181 1.327 2.309 1.387.257-.799-5.932-1.01-6.782-.106-.425-1.269-4.009-2.373-3.047z"/>
    <path fill="#FB9E97" d="M292.098 142.166c-.44.492.715 2.87 1.185 3.898.469 1.027.753 1.908 1.106 2.877.176.499.675 1.96 1.282 2.055 1.164.169-1.116-5.387-1.361-6.158-.127-.374-1.37-3.597-2.212-2.672z"/>
    <path fill="#39281E" d="M236 24.203c2.803 2.686 8.037 2.502 10.559 5.465 2.286 2.695 1.36 6.757 2.794 9.785 1.209 2.633 3.558 4.538 6.349 5.151 1.47.397 3.483.822 4.536-.49 2.267-2.769-1.18-4.366-1.878-6.046-1.542-3.692 1.488-8.04-.127-11.382-1.687-3.508-10.341-5.853-13.325-4.08"/>
    <path fill="#FBFFFF" d="M190.999 67.18c-.086 2.183-1.69 3.883-3.602 3.818-1.912-.065-3.424-1.87-3.397-4.055.028-2.185 1.585-3.94 3.498-3.943.95.022 1.853.475 2.51 1.26.657.784 1.014 1.835.991 2.92zM233.999 69.18c-.086 2.185-1.692 3.885-3.605 3.818-1.913-.067-3.425-1.877-3.394-4.063.032-2.187 1.594-3.94 3.508-3.935 1.972.059 3.532 1.927 3.491 4.18zM233.999 108.18c-.086 2.185-1.692 3.885-3.605 3.818-1.913-.067-3.425-1.877-3.394-4.063.032-2.187 1.594-3.939 3.508-3.935 1.972.059 3.532 1.927 3.491 4.18zM257.999 74.18c-.086 2.183-1.69 3.883-3.602 3.818-1.912-.065-3.424-1.87-3.397-4.055.028-2.185 1.585-3.94 3.498-3.943 1.976.052 3.542 1.922 3.501 4.18zM270.999 62.18c-.086 2.185-1.692 3.885-3.605 3.818-1.913-.067-3.425-1.877-3.394-4.063.032-2.187 1.594-3.94 3.508-3.935.948.025 1.849.48 2.504 1.264.654.784 1.01 1.833.987 2.916zM205.999 77.18c-.086 2.183-1.69 3.883-3.602 3.818-1.912-.065-3.424-1.87-3.397-4.055.028-2.185 1.585-3.94 3.498-3.943 1.976.052 3.542 1.922 3.501 4.18zM244.999 88.18c-.086 2.183-1.69 3.883-3.602 3.818-1.912-.065-3.424-1.87-3.397-4.055.028-2.185 1.585-3.94 3.498-3.943 1.976.052 3.542 1.922 3.501 4.18zM271.5 89c1.933 0 3.5-1.79 3.5-4s-1.567-4-3.5-4-3.5 1.79-3.5 4 1.567 4 3.5 4zM255.999 108.18c-.086 2.185-1.692 3.885-3.605 3.818-1.913-.067-3.425-1.877-3.394-4.063.032-2.187 1.594-3.939 3.508-3.935 1.972.059 3.532 1.927 3.491 4.18zM268.999 116.18c-.086 2.185-1.692 3.885-3.605 3.818-1.913-.067-3.425-1.877-3.394-4.063.032-2.187 1.594-3.939 3.508-3.935 1.972.059 3.532 1.927 3.491 4.18zM214.5 69c1.933 0 3.5-1.79 3.5-4s-1.567-4-3.5-4-3.5 1.79-3.5 4 1.567 4 3.5 4zM244.999 59.18c-.086 2.183-1.69 3.883-3.602 3.818-1.912-.065-3.424-1.87-3.397-4.055.028-2.185 1.585-3.94 3.498-3.943.95.022 1.853.475 2.51 1.26.657.784 1.014 1.835.991 2.92zM291.999 96.192c-.092 2.183-1.7 3.877-3.612 3.806-1.912-.072-3.419-1.882-3.386-4.067.033-2.185 1.594-3.935 3.507-3.931.95.025 1.852.481 2.507 1.268s1.009 1.839.984 2.924zM288.5 119c1.933 0 3.5-1.791 3.5-4s-1.567-4-3.5-4-3.5 1.791-3.5 4 1.567 4 3.5 4z"/>
    <path fill="#39281E" d="M202.764 237.387l-2.372 2.373c-.149.153-.358.24-.577.24-.219 0-.428-.087-.577-.24-.317-.324-.317-.827 0-1.151l2.372-2.373c.153-.151.363-.236.582-.236.22 0 .43.085.583.236.304.33.3.826-.011 1.151z"/>
    <path fill="#39281E" d="M203.758 238.386l-2.366 2.375c-.148.152-.357.239-.575.239-.218 0-.427-.087-.575-.239-.323-.321-.323-.826 0-1.147l2.366-2.375c.148-.152.357-.239.575-.239.218 0 .427.087.575.239.323.321.323.826 0 1.147z"/>
    <path fill="#A8501D" d="M195.642 227.267c-.056 7.086 4.574 11.227 11.1 12.497 3.276.635 9.792.175 9.223 5.236H185v-24c2.24.994 3.949 3.248 6.04 4.601 1.624 1.003 2.698 1.666 4.602 1.666zM133.344 218.305c-4.503 5.103-3.555 11.035.657 16.085 2.111 2.533 7.392 6.325 3.752 9.61L114 224.386 129.104 207c1.097 2.132.994 4.849 1.754 7.138.61 1.8 1.023 2.962 2.486 4.167z"/>
    <path fill="#EDE4DF" d="M206.767 239.337c-1.563-.256-3.077-.702-4.499-1.326-.651.395-1.341.737-2.063 1.023-2.144.876-4.606.939-6.804.172-2.856-1.007-5.302-3.649-8.401-3.142V244h30.962c.597-4.5-5.918-4.091-9.195-4.663zM134.006 232.725c-.62-.71-1.178-1.46-1.67-2.246-2.204 1.035-4.605.841-6.565-1.682-2.682-3.515-2.392-9.208-7.138-10.797L114 223.121 137.748 242c3.649-3.187-1.632-6.837-3.742-9.275z"/>
    <path fill="#4C2223" d="M141.693 130.218c-7.622 4.456-4.248 28.648-4.248 36.258 0 13.233-1.546 23.908-7.904 35.358-2.674 4.812-5.612 9.98-9.541 13.527 4.666 4.366 11.06 6.166 16.036 10.639 10.432-14.257 19.2-28.88 23.575-46.336 2.593-10.643 3.707-21.58 3.311-32.515-.5-16.592-6.994-25.28-21.229-16.931z"/>
    <path fill="#653332" d="M149 124l33.082 105H198l-18.199-105H149z"/>
    <path fill="#F76540" d="M236 66.086c-3.42 1.994-4.211 6.242-6.392 9.413-7.508 10.936-20.732 15.907-33.674 14.158-3.657-.534-7.225-1.527-10.612-2.953l-.712-.294c-.58-.261-1.169-.522-1.758-.842-1.728-.822-3.392-1.764-4.977-2.818-3.433-2.198-6.244-5.175-8.185-8.664-2.26-4.315-2.154-8.202-.273-10.725 1.126-1.47 2.802-2.464 4.678-2.776 1.427-.25 2.89-.25 4.317 0 2.373.361 4.774.84 7.2 1.43 10.023 2.296 20.416 5.375 30.324 1.943 4.563-1.582 7.825-5.569 11.835-7.958.624.942 1.283 1.825 1.951 2.675 1.012 1.27 2.058 2.465 3.113 3.676 1.055 1.212 2.128 2.423 3.165 3.735z"/>
    <path fill="#A8501D" d="M228.138 61c.878-1.268 2.185-2.173 3.677-2.547 2.3-.663 4.446-1.774 6.318-3.268 1.042-.812 1.715-2.01 1.867-3.325.015-1.535-1.154-2.822-2.679-2.95-2.183 0-2.743 1.77-4.423 2.557-2.221 1.049-.504-2.893-.327-3.643.178-.749.71-2.734.271-3.446-.663-1.048-1.195.347-1.4 1.002-.642 2.47-1.599 4.846-2.846 7.07-.655 1-1.395 1.94-2.212 2.81-.591.507-1.051 1.15-1.344 1.873-.271 1.339.84 2.865 3.098 3.867z"/>
    <path fill="#A8501D" d="M235.001 53.612c-.061-.73 2.212-2.705 3.169-3.543.956-.839 1.694-1.65 2.519-2.507.43-.441 1.667-1.74 2.177-1.541 1.009.387-3.976 5.148-4.608 5.842-.316.343-3.143 3.147-3.257 1.75zM237.001 55.611c-.061-.72 2.21-2.704 3.166-3.534.956-.829 1.693-1.658 2.517-2.506.43-.45 1.666-1.749 2.184-1.55 1 .387-3.982 5.156-4.613 5.85-.316.343-3.14 3.138-3.254 1.74z"/>
    <path fill="#A8501D" d="M237 56.55c0-.788 2.253-2.706 3.206-3.543.952-.838 1.698-1.646 2.534-2.493.431-.438 1.657-1.742 2.146-1.48.927.507-4.076 5.219-4.714 5.91-.314.34-3.155 3.125-3.172 1.606z"/>
    <path fill="#A8501D" d="M237.001 57.48c0-.854 2.284-2.722 3.24-3.555.956-.834 1.699-1.615 2.537-2.459.435-.443 1.683-1.74 2.126-1.414.846.633-4.149 5.276-4.797 5.973-.316.337-3.162 3.102-3.106 1.456zM104.299 69.938c-.141-1.552-.727-2.994-1.655-4.077-1.402-1.762-2.517-3.83-3.288-6.092-.322-1.152-.575-2.721-.069-3.845.587-1.338 1.949-1.862 3.065-1.18 1.533 1.106 1.28 2.935 2.184 4.477 1.188 2.043 1.472-2.238 1.633-2.981.161-.743.536-2.721 1.126-3.111.874-.576.72.928.621 1.579-.497 2.473-.724 5.014-.674 7.56.077 1.21.241 2.409.49 3.584.229.737.313 1.53.245 2.313-.314 1.318-1.678 2.061-3.678 1.773z"/>
    <path fill="#A8501D" d="M102.916 57.827c.402-.502-.748-2.872-1.216-3.898-.467-1.027-.767-1.913-1.122-2.88-.187-.502-.692-1.964-1.272-2.045-1.123-.163 1.188 5.397 1.44 6.165.112.384 1.375 3.603 2.17 2.658z"/>
    <path fill="#A8501D" d="M102.913 57.827c.411-.502-.747-2.872-1.215-3.898-.467-1.027-.766-1.913-1.121-2.88-.187-.502-.692-1.964-1.272-2.045-1.121-.163 1.188 5.397 1.44 6.165.112.377 1.383 3.604 2.168 2.658zM98.922 57.794c.465-.53-1.276-2.888-1.98-3.909-.703-1.02-1.191-1.905-1.752-2.865-.286-.507-1.097-1.966-1.848-2.019-1.443-.09 2.122 5.444 2.528 6.215.202.378 2.158 3.621 3.052 2.578z"/>
    <path fill="#A8501D" d="M98.95 60.775c.367-.57-1.375-2.915-2.099-3.907-.724-.992-1.206-1.907-1.784-2.876-.293-.507-1.143-1.976-1.794-1.992-1.28 0 2.33 5.47 2.76 6.251.22.39 2.224 3.618 2.917 2.524z"/>
    <path fill="#F76540" d="M140.804 61.027c-5.397-.341-10.956 2.623-15.481 5.683-2.933 1.958-6.063 3.75-8.915 5.743-1.106.778-1.898 1.976-3.067 2.553-1.575-2.85-4.309-5.062-5.875-8.043-2.419 0-5.046.07-7.466 0 .756 3.086.135 6.295.702 9.468.737 4.188 1.547 8.743 3.724 12.45 3.2 5.612 9.275 9.101 15.877 9.118 9.805.079 17.991-6.12 23.389-13.84 3.985-5.787 5.775-22.573-2.888-23.132z"/>
    <path fill="#F76540" d="M135.404 140.542c.132.162.274.305.406.458 15.564-4.708 31.137-9.362 47.001-12.758 2.482-6.055 2.341-17.169 2.005-21.077-.416-4.381-1.211-8.716-2.376-12.955-.671-2.606-1.422-5.184-2.191-7.772l-.212-.71-1.086-3.674c-1.378-4.744-2.65-10.637-4.655-16.019-.774-2.173-1.726-4.277-2.844-6.289-3.348-5.885-8.268-9.829-16.253-8.481-3.031.517-5.905 1.734-8.401 3.558-1.898 1.405-3.572 3.099-4.964 5.022-2.297 3.254-4.049 6.873-5.185 10.71-2.499 7.896-3.365 16.863-4.416 24.472-.124.899-.239 1.734-.362 2.57-1.467 9.793-4.117 21.607-2.2 31.346.858 4.318 2.837 8.323 5.733 11.599z"/>
    <path fill="#39281E" d="M156.432 10.225c-2.941 2.633-5.839 5.066-9.658 3.293-3.82-1.773-8.93-5.103-13.171-2.38-2.696 1.747-4.725 5.492-3.434 8.831 1.467 3.81 6.586 6.46 5.102 11.183-1.756 5.6-12.723 10.857-8.175 17.688 2.151 3.23 6.05 4.307 7.358 8.288 1.677 5.085.641 10.858 4.25 15.128 4.39 5.148 13.601 7.094 19.634 4.777 5.602-2.153 3.934-9.717 8.57-12.323 4.478-2.515 5.268 1.674 9.088 2.823 6.533 1.99 9.264-4.261 9.035-9.952-.167-4.19-2.634-7.917 1.519-10.442 4.882-2.976 7.692 2.633 11.705-4.08 2.38-3.99 2.529-9.428-.825-12.857-4.514-4.614-9.422-.66-14.576-1.674-7.727-1.51-2.775-8.333-2.959-14.34-.088-2.887-.58-6.678-4.127-5.8-2.635.642-2.977 6.94-6.375 5.573-2.318-.905-1.853-4.641-3.363-6.415-2.933-3.501-6.173-.38-9.598 2.679z"/>
    <rect width="4" height="2" x="130" y="233" fill="#39281E" rx=".78"/>
    <rect width="4" height="2" x="132" y="235" fill="#39281E" rx=".78"/>
    <rect width="31" height="2" x="185" y="243" fill="#39281E" rx=".88"/>
    <path fill="#39281E" d="M138.314 244.892l-24.192-22.161c-.163-.168-.163-.437 0-.605.073-.081.176-.126.283-.126.108 0 .21.045.284.126l24.192 22.113c.159.173.159.442 0 .615-.068.085-.167.138-.275.145-.108.007-.213-.031-.292-.107z"/>
    <path fill="#EDE4DF" d="M115.302 224L139 244.377 136.71 247 114 226.378l1.302-2.378zM185 243H216V247H185z"/>
    <path stroke="#39281E" stroke-linecap="round" stroke-linejoin="round" stroke-width=".84" d="M160 133l26 98"/>
    <path fill="#39281E" d="M182 92.888h-.59c-2.427 0-4.785.6-6.891-.97-2.006-1.481-3.499-4.443-1.738-6.664.671-.94 1.848-1.412 3.009-1.207 1.518.308 2.94.958 4.15 1.896.575.4 1.149.836 1.708 1.295-.506-.23-1.019-.459-1.532-.74.651 2.117 1.302 4.242 1.884 6.39z"/>
    <path fill="#A8501D" d="M84.019 223.792c-.065 7.666 5.16 12.154 12.526 13.524 3.693.69 11.078.201 10.413 5.684H72v-26c2.52 1.074 4.459 3.492 6.822 4.959 1.828 1.118 3.046 1.833 5.197 1.833z"/>
    <path fill="#A8501D" d="M53.024 221.786c-.072 7.693 5.159 12.163 12.522 13.53 3.694.693 11.048.197 10.416 5.684H41v-26c2.53 1.068 4.463 3.513 6.83 4.957 1.825 1.111 3.044 1.829 5.194 1.829z"/>
    <path fill="#EDE4DF" d="M96.548 238.713c-4.94-1.012-8.928-3.586-10.986-7.713-1.847 2.777-4.33 4.763-7.644 4.696-2.36-.073-4.55-1.298-5.918-3.308V245h34.961c.637-6.065-6.721-5.525-10.413-6.287z"/>
    <path fill="#EDE4DF" d="M65.546 234.939c-4.057-.802-7.472-2.625-9.703-5.469-2.096 2.78-5.122 4.393-8.953 3.081-2.656-.912-4.517-2.999-5.89-5.551v14h34.962c.632-5.852-6.722-5.323-10.416-6.061z"/>
    <path fill="#B26022" d="M74 121L63.871 221s-25.577-1.492-24.856-1.735c.72-.243 3.376-98.256 3.376-98.256L74 121z"/>
    <path fill="#C46E27" d="M79.645 119L90 224.683 66.14 227 53 120.279 79.645 119z"/>
    <path fill="#A8501D" d="M135.009 91.725c1.679.196 2.723.98 3.876 1.973 1.679 1.451 3.485 2.967 5.717 3.787 1.107.406 2.623.762 3.785.29 1.393-.602 2.005-1.94 1.424-3.119-.953-1.705-2.777-1.509-4.22-2.546-1.906-1.364 2.342-1.408 3.086-1.538.744-.13 2.723-.4 3.167-1.001.636-.878-.835-.805-1.506-.726-2.477.373-5.007.463-7.515.269-1.186-.157-2.353-.4-3.485-.726-.696-.28-1.471-.413-2.25-.384-1.334.203-2.188 1.61-2.079 3.721z"/>
    <path fill="#A8501D" d="M147.198 95.065c.531-.388 2.889 1.055 3.906 1.65 1.018.595 1.916.992 2.882 1.452.501.243 1.968.901 2.013 1.541.097 1.218-5.448-1.749-6.219-2.091-.382-.163-3.6-1.794-2.582-2.552z"/>
    <path fill="#A8501D" d="M147.198 96.068c.531-.397 2.889 1.055 3.914 1.65 1.025.595 1.908.983 2.874 1.452.501.243 1.968.902 2.013 1.542.097 1.209-5.448-1.758-6.219-2.092-.382-.171-3.6-1.804-2.582-2.552zM144.223 98.04c.571-.298 2.908 1.153 3.926 1.748 1.018.596 1.905 1.012 2.869 1.49.501.251 1.974.949 1.982 1.498 0 1.059-5.491-1.96-6.27-2.313-.378-.173-3.594-1.85-2.507-2.423z"/>
    <path fill="#A8501D" d="M143.25 97.038c.606-.36 2.927 1.935 3.94 2.892 1.013.956 1.899 1.643 2.864 2.431.502.405 1.97 1.564 1.946 2.351-.04 1.508-5.583-3.375-6.317-3.949-.383-.293-3.589-3.016-2.433-3.725zM5.3 25.53c.132-1.616-.209-3.237-.964-4.588-1.122-2.168-1.894-4.565-2.279-7.07-.121-1.248-.106-2.896.623-3.882.849-1.18 2.336-1.326 3.335-.326 1.405 1.566.76 3.322 1.428 5.132.85 2.398 1.906-1.81 2.21-2.534.304-.725 1.04-2.59 1.717-2.815.995-.335.57 1.122.342 1.765-.948 2.359-1.637 4.853-2.051 7.422-.133 1.245-.179 2.501-.137 3.756.102.8.045 1.62-.167 2.39-.509 1.248-2.058 1.61-4.056.75z"/>
    <path fill="#A8501D" d="M8.768 13.875c.535-.438 0-3.125-.17-4.283-.17-1.158-.25-2.13-.339-3.207-.044-.557-.16-2.175-.705-2.368-1.07-.379-.268 5.835-.223 6.681.018.423.402 4.009 1.437 3.177z"/>
    <path fill="#A8501D" d="M7.767 13.876c.537-.438 0-3.133-.161-4.284-.162-1.15-.251-2.138-.34-3.207 0-.557-.162-2.175-.717-2.368-1.066-.379-.26 5.835-.215 6.681-.018.416.367 4.01 1.433 3.178zM5.74 13.854c.763-.472-.354-3.146-.79-4.3-.436-1.153-.654-2.127-.926-3.205-.136-.555-.518-2.18-1.362-2.337-1.676-.315.34 5.887.504 6.74.081.42 1.117 4.008 2.574 3.102z"/>
    <path fill="#A8501D" d="M3.847 13.833c.561-.51-.571-3.181-1.024-4.33-.453-1.15-.7-2.131-1.078-3.212C1.583 5.735 1.14 4.099.44 4.007c-1.347-.25.809 5.952 1.025 6.85.161.35 1.315 3.95 2.382 2.976z"/>
    <path fill="#FFE4C1" d="M63.159 27.22c6.622 2.546 3.284 10.052 2.468 14.986-.879 5.195-.387 8.354 4.584 10.328 6.017 2.381 12.683 3.23 18.857 5.143 9.31 2.9 18.005 8.32 26.323 13.514 5.27 3.324 10.408 7.012 16.161 9.523 2.749 1.203 6.42 3.783 9.441 3.722.211 4.407-4.541 8.658-7.228 11.445-2.995-.216-5.894 1.204-8.713 2-5.621 1.602-11.927 1.506-17.706 1.48-8.783 0-16.627-2.311-23.003-8.709-.22 11.203 1.115 22.154 1.686 33.348H40.235V90.038c-16.319 0-26.85-16.094-31.566-30.846-3.17-9.904-2.635-21.418-2.635-31.73 3.619-1.211 7.668-2.423 11.33-3.462.361 2.16.878 4.292 1.546 6.38 1.045 3.36 2.38 9.307 4.708 12 2.477 2.839 7.562 1.973 10.811 2.501 5.481.866 10.54 5.333 13.034 10.45-.175-2.06 1.256-3.784 2.68-4.961 3.02-2.51 4.953-4.493 4.795-8.865-.106-2.96-2.064-5.809-1.44-8.882.417-2.061 1.722-3.842 3.577-4.879 1.854-1.037 4.075-1.228 6.084-.523z"/>
    <path fill="#39281E" d="M25.587 38.834c5.73-.098 12.743 1.264 17.548-2.848 3.337-2.865 3.942-7.958 6.825-11.257 3.95-4.554 10.535-2.891 14.175 1.194 4.582 5.155 3.159 12.796-.694 17.924-1.958 2.591-4.45 4.66-6.167 7.49-1.78 3.069-2.67 6.685-3.56 10.116-3.167 11.23-10.784 22.019-22.182 24.84C17.294 89.828.744 79.765.032 63.716-.716 48.295 11.893 39.09 25.587 38.834zM84.711 92.471c-2.53-3.059-10.13-11.729-13.946-4.935-3.098 5.494 3.985 7.506 7.481 9.924 2.261 1.597 4.592 3.898 6.754 5.54l-.289-10.529z"/>
    <path stroke="#39281E" stroke-linecap="round" stroke-linejoin="round" stroke-width=".84" d="M65 127l10 99M41 239h31M73 243h32M90 237l-2 2M94 238l-4 2M58 231l-4 4M61 235l-4 2M233 123l.831 18.447c.393 8.848-1.233 18.99 3.361 26.98 5.228 9.092 15.471 14.36 22.997 21.204L276 204M221 243h31M267 230l23-20M239 240l-4-4M276 217l-4-4"/>
    <path fill="#39281E" d="M302 91.783c2.335-3.592 5.716-8.093 9.307-10.541 4.276-2.92 10.747-.505 8.06 5.291-2.836 6.142-14.654 5.107-16.682 11.467 0-2.162.72-4.358-.685-6.217z"/>
    <path stroke="#39281E" stroke-linecap="round" stroke-linejoin="round" stroke-width=".84" d="M310.01 128s-1.983 52.346 48.99 51.998M371 172l7 34M371 191l-2 4M310 243h35M326 237l2 2"/>
    <path fill="#39281E" d="M247.084 27.037c-3.107 3.106-2.717 6.856 1.014 8.425 7.748 3.238 7.821-9.225.495-8.425"/>
</svg>
